<?xml version="1.0" encoding="iso-8859-1"?>
<!-- Generator: Adobe Illustrator 19.0.0, SVG Export Plug-In . SVG Version: 6.00 Build 0)  -->
<svg version="1.1" id="Capa_1" xmlns="http://www.w3.org/2000/svg" xmlns:xlink="http://www.w3.org/1999/xlink" x="0px" y="0px"
	 viewBox="0 0 512.818 512.818" style="enable-background:new 0 0 512.818 512.818;" xml:space="preserve">
<path style="fill:#131231;" d="M85.884,256.818L85.884,256.818c16,3.2,26.667,17.067,25.6,33.067l-2.133,51.2l0,0
	c-17.067-4.267-28.8-20.267-26.667-37.333L85.884,256.818z"/>
<polygon style="fill:#CED6E0;" points="223.484,232.285 289.618,232.285 190.418,361.351 181.884,224.818 "/>
<path style="fill:#F26F5A;" d="M214.951,255.751l12.8,12.8l12.8,40.533l-44.8,81.067l-13.867-49.067c0,0,24.533-62.933,23.467-73.6
	C204.284,255.751,214.951,255.751,214.951,255.751z"/>
<polygon style="fill:#F5B54C;" points="166.951,511.751 139.218,481.885 101.884,481.885 99.751,511.751 "/>
<path style="fill:#131231;" d="M99.751,327.218v136.533h82.133v48h25.6l-5.333-133.333c0,0-26.667-62.933-26.667-100.267
	s12.8-81.067,12.8-81.067s-14.933,12.8-26.667,17.067s-69.333,28.8-75.733,42.667C85.884,256.818,106.151,299.485,99.751,327.218z"
	/>
<path style="fill:#222148;" d="M105.084,511.751c4.267-10.667,14.933-28.8,34.133-29.867c0,0-21.333-34.133-24.533-39.467
	c-3.2-5.333-13.867-43.733-13.867-43.733v-71.467c5.333-27.733-14.933-70.4-14.933-70.4s-9.6,22.4-14.933,49.067
	c-5.333,26.667-21.333,107.733-22.4,121.6c-1.067,11.733,1.067,64,3.2,84.267H105.084z"/>
<polygon style="fill:#F5B54C;" points="258.684,158.685 283.218,155.485 290.684,189.618 223.484,232.285 204.284,226.951
	194.684,205.618 214.951,175.751 "/>
<path style="fill:#F05640;" d="M197.884,234.418c0,0,4.267,14.933,5.333,19.2c1.067,4.267,1.067,13.867,1.067,13.867
	s18.133-2.133,22.4,1.067c0,0,10.667-19.2,17.067-22.4c0,0-7.467-11.733-21.333-13.867c-14.933-2.133-16-3.2-16-3.2L197.884,234.418
	z"/>
<path style="fill:#131231;" d="M464.551,511.751c0-8.533-2.133-43.733-6.4-55.467c0,0-9.6-101.333-12.8-128
	c-3.2-27.733-11.733-67.2-29.867-76.8c-19.2-9.6-106.667-64-106.667-64l-61.867,84.267l-52.267,78.933v86.4l46.933,74.667H464.551z"
	/>
<path style="fill:#F26F5A;" d="M70.951,413.618h187.733c3.2,0,6.4,1.067,8.533,4.267l66.133,74.667c2.133,2.133,0,6.4-3.2,6.4
	l-176,4.267c-1.067,0-2.133,0-3.2-1.067l-83.2-82.133C65.618,417.885,67.751,413.618,70.951,413.618z"/>
<path style="fill:#FFD15C;" d="M99.751,447.751l8.533,9.6c-1.067-1.067-1.067,1.067-1.067,1.067s18.133,21.333,20.267,24.533
	c2.133,3.2,7.467,9.6,13.867,12.8c6.4,3.2,20.267,14.933,20.267,14.933s1.067,1.067,1.067,2.133h97.067
	c1.067-3.2,1.067-6.4,2.133-9.6c1.067-9.6-3.2-28.8-6.4-30.933c-4.267-2.133-12.8-9.6-14.933-11.733
	c-3.2-2.133-11.733-10.667-17.067-12.8s-10.667,4.267-10.667,12.8s14.933,19.2,14.933,19.2l-1.067,3.2
	c-1.067-1.067-16-5.333-16-5.333c-1.067-2.133-14.933-8.533-14.933-8.533c-3.2-4.267-20.267-14.933-20.267-14.933
	c-2.133-3.2-22.4-13.867-24.533-14.933c-2.133-1.067-11.733-4.267-14.933-1.067c-4.267,4.267-1.067,9.6-1.067,9.6
	s-7.467-4.267-17.067-9.6c-11.733-6.4-11.733,5.333-10.667,6.4C101.884,439.218,99.751,446.685,99.751,447.751z"/>
<g>
	<path style="fill:#F5B54C;" d="M134.951,445.618c0,0,1.067,0,2.133,1.067s3.2,2.133,4.267,3.2c2.133,1.067,4.267,2.133,6.4,4.267
		c1.067,1.067,2.133,2.133,3.2,2.133c1.067,1.067,2.133,2.133,3.2,3.2s2.133,2.133,3.2,3.2c1.067,1.067,2.133,2.133,3.2,3.2
		c1.067,1.067,2.133,2.133,3.2,3.2s2.133,2.133,3.2,2.133c2.133,1.067,3.2,2.133,4.267,3.2s2.133,1.067,2.133,1.067
		s-1.067,0-2.133-1.067s-3.2-2.133-4.267-3.2s-2.133-1.067-3.2-2.133c-1.067-1.067-2.133-2.133-3.2-3.2
		c-1.067-1.067-2.133-2.133-3.2-3.2s-2.133-2.133-3.2-3.2c-1.067-1.067-2.133-2.133-3.2-3.2c-1.067-1.067-2.133-2.133-3.2-2.133
		c-2.133-2.133-4.267-3.2-6.4-4.267c-2.133-1.067-3.2-2.133-4.267-3.2C136.018,445.618,134.951,445.618,134.951,445.618z"/>
	<path style="fill:#F5B54C;" d="M107.218,442.418c0,0,1.067,1.067,3.2,2.133c2.133,2.133,4.267,4.267,7.467,6.4
		c1.067,1.067,3.2,3.2,5.333,4.267c1.067,1.067,2.133,1.067,3.2,2.133c1.067,1.067,2.133,1.067,3.2,2.133
		c2.133,2.133,4.267,3.2,5.333,5.333c1.067,1.067,2.133,2.133,3.2,3.2l1.067,1.067l1.067,1.067c0,0,0,0,1.067,1.067
		c2.133,2.133,3.2,4.267,5.333,5.333c2.133,2.133,4.267,3.2,5.333,5.333c1.067,1.067,2.133,1.067,3.2,2.133
		c1.067,1.067,2.133,1.067,3.2,2.133c2.133,1.067,3.2,3.2,5.333,4.267c3.2,2.133,5.333,5.333,7.467,6.4
		c2.133,1.067,2.133,2.133,2.133,2.133s-1.067-1.067-3.2-2.133c-2.133-1.067-4.267-3.2-7.467-6.4
		c-1.067-1.067-3.2-2.133-5.333-4.267c-1.067-1.067-2.133-1.067-3.2-2.133c-1.067-1.067-2.133-1.067-3.2-2.133
		c-2.133-1.067-4.267-3.2-6.4-5.333c-2.133-2.133-4.267-3.2-5.333-5.333c0,0,0,0-1.067-1.067l-1.067-1.067l-1.067-1.067
		c-1.067-1.067-2.133-2.133-3.2-3.2c-2.133-2.133-3.2-3.2-5.333-5.333c-1.067-1.067-2.133-2.133-3.2-2.133
		c-1.067-1.067-2.133-1.067-3.2-2.133c-2.133-1.067-3.2-3.2-4.267-4.267c-3.2-3.2-5.333-5.333-6.4-6.4
		C108.284,443.485,107.218,442.418,107.218,442.418z"/>
	<path style="fill:#F5B54C;" d="M109.351,456.285c0,0,1.067,1.067,2.133,2.133c1.067,1.067,3.2,3.2,5.333,5.333
		c1.067,1.067,2.133,2.133,3.2,3.2c1.067,1.067,1.067,1.067,2.133,2.133c1.067,1.067,1.067,1.067,2.133,2.133
		c1.067,1.067,2.133,3.2,4.267,4.267c1.067,2.133,3.2,3.2,4.267,5.333c1.067,1.067,1.067,1.067,2.133,2.133l1.067,1.067l1.067,1.067
		c2.133,1.067,3.2,2.133,5.333,3.2c3.2,2.133,6.4,4.267,9.6,6.4c2.133,2.133,5.333,3.2,6.4,4.267
		c1.067,1.067,2.133,2.133,2.133,2.133s0,0-1.067,0c0,0-1.067-1.067-2.133-1.067c-1.067-1.067-4.267-2.133-6.4-4.267
		c-3.2-2.133-6.4-4.267-9.6-6.4c-2.133-1.067-3.2-2.133-5.333-3.2l-1.067-1.067l-1.067-1.067c-1.067-1.067-1.067-1.067-2.133-2.133
		c-1.067-2.133-3.2-3.2-4.267-5.333c-1.067-2.133-2.133-3.2-4.267-5.333c-1.067-1.067-1.067-1.067-2.133-2.133
		c-1.067-1.067-1.067-1.067-2.133-2.133c-1.067-1.067-2.133-2.133-3.2-4.267c-2.133-2.133-4.267-4.267-5.333-5.333
		C109.351,457.351,109.351,456.285,109.351,456.285z"/>
	<path style="fill:#F5B54C;" d="M230.951,484.018c-3.2-2.133-4.267-6.4-4.267-6.4l-1.067,3.2c0,0,11.733,9.6,13.867,10.667
		C239.484,491.485,234.151,486.151,230.951,484.018z"/>
</g>
<g>
	<path style="fill:#E8EAE8;" d="M283.218,155.485l9.6,12.8l7.467,11.733l-43.733,85.333c0,0-20.267-29.867-33.067-33.067
		c0,0,35.2-26.667,42.667-34.133C273.618,189.618,286.418,171.485,283.218,155.485z"/>
	<path style="fill:#E8EAE8;" d="M223.484,232.285c0,0-16,0-20.267,6.4c-4.267,7.467-9.6,19.2-14.933,21.333l-6.4-50.133l8.533-16
		C190.418,193.885,207.484,221.618,223.484,232.285z"/>
</g>
<path style="fill:#FFD15C;" d="M283.218,155.485c0,0-6.4,19.2-13.867,25.6c-7.467,7.467-12.8,12.8-14.933,18.133
	c-3.2,5.333-21.333,35.2-51.2,16c0,0-8.533-6.4-10.667-13.867c-2.133-7.467-10.667-14.933-13.867-20.267
	c-4.267-4.267-18.133-23.467-18.133-39.467s-6.4-27.733-6.4-30.933c-1.067-3.2-11.733-23.467-3.2-51.2
	c9.6-27.733,44.8-34.133,44.8-34.133l66.133-4.267l21.333,68.267C283.218,90.418,284.284,136.285,283.218,155.485z"/>
<path style="fill:#222148;" d="M188.284,193.885c-19.2,9.6-33.067,39.467-39.467,71.467l10.667-5.333l-19.2,23.467
	c0,0,38.4,69.333,45.867,85.333c8.533,17.067,8.533,45.867,8.533,45.867s0-52.267-3.2-97.067
	C189.351,271.751,184.018,213.085,188.284,193.885z"/>
<g>
	<path style="fill:#222148;" d="M310.951,267.485c-3.2-1.067-38.4-10.667-38.4-10.667l9.6,28.8c0,0-34.133,24.533-56.533,41.6
		c-18.133,13.867-29.867,35.2-30.933,58.667v1.067c0,0-6.4-22.4,0-39.467c7.467-17.067,55.467-94.933,61.867-101.333
		c6.4-6.4,32-43.733,35.2-58.667c3.2-13.867,0-18.133,0-18.133c12.8-1.067,25.6,24.533,28.8,34.133
		C324.818,212.018,310.951,267.485,310.951,267.485z"/>
	<path style="fill:#222148;" d="M150.951,103.218c0,0-7.467-38.4,11.733-58.667c0,0,29.867,4.267,49.067-5.333
		s27.733-13.867,35.2-6.4c6.4,6.4,21.333,20.267,20.267,33.067c0,4.267,0,8.533,2.133,12.8c3.2,7.467,4.267,19.2,4.267,24.533h9.6
		c0,0,1.067-14.933,1.067-23.467s-1.067-56.533-30.933-70.4s-54.4-10.667-72.533-1.067s-27.733,33.067-32,50.133
		C144.551,74.418,146.684,91.485,150.951,103.218z"/>
</g>
<path style="fill:#FFD15C;" d="M296.018,107.485c-1.067,12.8-6.4,23.467-11.733,23.467s-9.6-10.667-7.467-23.467
	c1.067-12.8,6.4-23.467,11.733-23.467C293.884,84.018,297.084,94.685,296.018,107.485z"/>
<g>
</g>
<g>
</g>
<g>
</g>
<g>
</g>
<g>
</g>
<g>
</g>
<g>
</g>
<g>
</g>
<g>
</g>
<g>
</g>
<g>
</g>
<g>
</g>
<g>
</g>
<g>
</g>
<g>
</g>
</svg>
