<?xml version="1.0" encoding="iso-8859-1"?>
<!-- Generator: Adobe Illustrator 19.0.0, SVG Export Plug-In . SVG Version: 6.00 Build 0)  -->
<svg version="1.1" id="Capa_1" xmlns="http://www.w3.org/2000/svg" xmlns:xlink="http://www.w3.org/1999/xlink" x="0px" y="0px"
	 viewBox="0 0 512.015 512.015" style="enable-background:new 0 0 512.015 512.015;" xml:space="preserve">
<path style="fill:#222148;" d="M165.958,451.215c0,0-4.267,40.533-1.067,60.8h188.8c0,0-2.133-61.867-7.467-69.333
	C340.892,435.215,165.958,451.215,165.958,451.215z"/>
<path style="fill:#222148;" d="M138.225,390.415c0,0-5.333-12.8-4.267-19.2c0-7.467,6.4-16,12.8-19.2l13.867-34.133V216.549
	l-20.267-30.933c0,0-19.2,28.8-18.133,50.133c1.067,21.333-8.533,50.133-11.733,61.867c-2.133,11.733-6.4,21.333-5.333,30.933
	c1.067,9.6,14.933,37.333,16,41.6c2.133,4.267,8.533,9.6,9.6,12.8C130.758,384.015,135.025,390.415,138.225,390.415z"/>
<ellipse style="fill:#131231;" cx="345.159" cy="262.415" rx="18.133" ry="33.067"/>
<path style="fill:#222148;" d="M354.758,182.415l7.467-4.267c0,0,25.6,30.933,24.533,53.333c-1.067,22.4,10.667,54.4,12.8,65.067
	c2.133,10.667,7.467,13.867,7.467,23.467c0,8.533-4.267,23.467-8.533,27.733c-4.267,4.267-28.8,39.467-40.533,40.533l-5.333,3.2
	c0,0,12.8-28.8-6.4-39.467c0,0,3.2-12.8,7.467-18.133c4.267-5.333,3.2-14.933,3.2-14.933l-5.333-74.667
	C351.559,244.282,349.425,192.015,354.758,182.415z"/>
<g>
	<path style="fill:#FFD15C;" d="M284.359,92.815c0,0-2.133,16-7.467,22.4v8.533l11.733,28.8v32l-87.467-3.2l13.867-39.467
		l-1.067-33.067c0,0-5.333-28.8-5.333-39.467s0-30.933,0-30.933s2.133-16,20.267-18.133c18.133-3.2,41.6-2.133,41.6-2.133l6.4,2.133
		c0,0,7.467,29.867,6.4,38.4s-1.067,16-1.067,16L284.359,92.815z"/>
	<path style="fill:#FFD15C;" d="M288.625,184.549l-87.467-3.2l13.867-40.533l-1.067-33.067c0,0-5.333-28.8-5.333-39.467
		s0-30.933,0-30.933s2.133-16,20.267-18.133s41.6-2.133,41.6-2.133l0,0l6.4,3.2l0,0c0,1.067,7.467,29.867,6.4,38.4
		s-1.067,16-1.067,16l2.133,18.133l0,0c0,1.067-2.133,16-7.467,22.4v8.533l11.733,28.8V184.549z M201.158,181.349l86.4,3.2v-32
		l-10.667-28.8v-8.533l0,0c4.267-6.4,6.4-21.333,6.4-22.4l-1.067-18.133c0,0,0-7.467,1.067-16c1.067-7.467-6.4-36.267-6.4-37.333
		l-6.4-3.2c-1.067,0-23.467,0-41.6,2.133c-18.133,2.133-20.267,18.133-20.267,18.133s0,20.267,0,30.933s5.333,39.467,5.333,39.467
		l1.067,33.067l0,0L201.158,181.349z"/>
</g>
<path style="fill:#F5B54C;" d="M252.359,166.415c4.267,0-7.467,8.533-20.267,16l-30.933-1.067l13.867-40.533v-33.067
	c0,0,11.733,23.467,24.533,26.667c12.8,3.2,21.333,1.067,26.667-5.333c5.333-6.4,11.733-14.933,11.733-14.933
	s-7.467,25.6-29.867,39.467C222.492,169.615,245.958,166.415,252.359,166.415z"/>
<path style="fill:#E8EAE8;" d="M328.092,195.215v257.067c-42.667-10.667-71.467,14.933-158.933,0V195.215
	c0-22.4,18.133-40.533,40.533-40.533h2.133c7.467,11.733,21.333,19.2,37.333,19.2s29.867-7.467,37.333-19.2l0,0
	C309.958,154.682,328.092,172.815,328.092,195.215z"/>
<path style="fill:#131231;" d="M220.359,190.949c0,0,0,0-1.067,1.067c-2.133,4.267-6.4,16-6.4,24.533c0,10.667-5.333,76.8-9.6,86.4
	c-3.2,9.6-12.8,104.533-23.467,124.8c-10.667,20.267-17.067,53.333-17.067,53.333s-4.267-8.533-6.4-18.133
	c-1.067-9.6-3.2-19.2-4.267-28.8c-2.133-9.6-3.2-39.467-3.2-39.467l2.133-96c0,0-3.2-59.733-3.2-64s-13.867-27.733-8.533-49.067
	c0,0,16-12.8,25.6-19.2c8.533-6.4,41.6-23.467,41.6-23.467l13.867,22.4"/>
<g>
	<path style="fill:#FFD15C;" d="M146.758,329.615c0,0-4.267,0-4.267,6.4c0,5.333,0,8.533-1.067,11.733
		c-1.067,3.2-4.267,11.733-5.333,12.8c-1.067,1.067-5.333,13.867-1.067,24.533c0,0,3.2,7.467,6.4,8.533c0,0,2.133,7.467,5.333,8.533
		c0,0,1.067,5.333,7.467,5.333c6.4,0,20.267-5.333,23.467-6.4c3.2-1.067,17.067-10.667,17.067-10.667l-43.733-3.2
		C149.958,386.149,155.292,333.882,146.758,329.615z"/>
	<path style="fill:#FFD15C;" d="M293.958,81.082c-1.067,8.533-5.333,16-8.533,16c-4.267,0-6.4-7.467-5.333-16
		c1.067-8.533,5.333-16,8.533-16C291.825,65.082,295.025,71.482,293.958,81.082z"/>
	<path style="fill:#FFD15C;" d="M199.025,81.082c1.067,8.533,5.333,16,8.533,16c4.267,0,6.4-7.467,5.333-16s-5.333-16-8.533-16
		S197.958,71.482,199.025,81.082z"/>
</g>
<path style="fill:#222148;" d="M209.692,80.015h2.133c0-3.2,0-8.533,0-12.8c0-5.333,2.133-8.533,3.2-13.867
	c1.067-4.267,1.067-13.867,0-17.067c-1.067-3.2,7.467-12.8,16-9.6s32,3.2,34.133,2.133c3.2-1.067,11.733,7.467,10.667,14.933
	c-1.067,7.467,4.267,10.667,4.267,14.933v20.267h2.133c1.067-4.267,3.2-14.933,4.267-18.133c1.067-2.133,1.067-39.467-6.4-50.133
	c-6.4-10.667-42.667-16-59.733-3.2c-17.067,13.867-17.067,30.933-17.067,35.2S204.359,64.015,209.692,80.015z"/>
<path style="fill:#131231;" d="M291.825,145.082l1.067-4.267c0,0,35.2,18.133,44.8,21.333c9.6,3.2,23.467,14.933,23.467,14.933
	s-3.2,42.667-8.533,57.6c-5.333,14.933,2.133,51.2,2.133,51.2s5.333,114.133,7.467,125.867c2.133,10.667-1.067,38.4-14.933,57.6
	c-13.867,19.2-13.867,21.333-13.867,21.333s-10.667-43.733-13.867-53.333c-3.2-9.6-20.267-140.8-20.267-142.933
	c-1.067-2.133-7.467-72.533-14.933-94.933C275.825,177.082,291.825,145.082,291.825,145.082z"/>
<path style="fill:#FFD15C;" d="M347.292,338.149c0,0,4.267,1.067,3.2,5.333c0,3.2-1.067,4.267-1.067,4.267s2.133,5.333,3.2,6.4
	s3.2,3.2,3.2,5.333c0,1.067,3.2,17.067,1.067,22.4c-3.2,5.333-3.2,4.267-3.2,4.267l-9.6,10.667c0,0-3.2,6.4-7.467,5.333
	c0,0-2.133,4.267-6.4,3.2c-4.267-1.067-36.267-14.933-36.267-14.933l46.933-2.133l-4.267-34.133L347.292,338.149z"/>
<g>
	<path style="fill:#222148;" d="M407.025,318.949c0,8.533-4.267,23.467-8.533,27.733c-4.267,4.267-28.8,39.467-40.533,40.533
		l-5.333,2.133c0,0,1.067-1.067,1.067-4.267l0,0c0,0,0,1.067,3.2-4.267c3.2-5.333,0-21.333-1.067-22.4c0-1.067-2.133-3.2-3.2-5.333
		c-1.067-1.067-3.2-6.4-3.2-6.4s1.067-1.067,1.067-4.267c0-2.133-1.067-3.2-2.133-4.267c1.067-3.2,2.133-5.333,4.267-7.467
		c4.267-5.333,3.2-14.933,3.2-14.933l50.133-3.2C407.025,314.682,407.025,316.815,407.025,318.949z"/>
	<path style="fill:#222148;" d="M276.892,123.749c0,0,9.6,18.133,4.267,33.067c-4.267,12.8-6.4,18.133-7.467,19.2v1.067l3.2,22.4
		c0,1.067,1.067,2.133,2.133,1.067c3.2-1.067,10.667-4.267,14.933-17.067c5.333-16,4.267-37.333,0-43.733l-7.467-3.2
		C286.492,137.615,282.225,124.815,276.892,123.749z"/>
</g>
<rect x="146.758" y="322.149" style="fill:#222148;" width="200.533" height="46.933"/>
<path style="fill:#F26F5A;" d="M152.092,329.615h189.867c3.2,0,5.333-2.133,5.333-5.333v-16c0-3.2-2.133-5.333-5.333-5.333H152.092
	c-3.2,0-5.333,2.133-5.333,5.333v16C146.758,327.482,148.892,329.615,152.092,329.615z"/>
<g>
	<circle style="fill:#FFFFFF;" cx="183.025" cy="316.815" r="5.333"/>
	<circle style="fill:#FFFFFF;" cx="311.025" cy="316.815" r="5.333"/>
</g>
<path style="fill:#F26F5A;" d="M152.092,359.482h189.867c3.2,0,5.333-2.133,5.333-5.333v-16c0-3.2-2.133-5.333-5.333-5.333H152.092
	c-3.2,0-5.333,2.133-5.333,5.333v16C146.758,357.349,148.892,359.482,152.092,359.482z"/>
<g>
	<circle style="fill:#FFFFFF;" cx="183.025" cy="346.682" r="5.333"/>
	<circle style="fill:#FFFFFF;" cx="311.025" cy="346.682" r="5.333"/>
</g>
<path style="fill:#F26F5A;" d="M152.092,389.349h189.867c3.2,0,5.333-2.133,5.333-5.333v-16c0-3.2-2.133-5.333-5.333-5.333H152.092
	c-3.2,0-5.333,2.133-5.333,5.333v16C146.758,387.215,148.892,389.349,152.092,389.349z"/>
<g>
	<circle style="fill:#FFFFFF;" cx="183.025" cy="375.482" r="5.333"/>
	<circle style="fill:#FFFFFF;" cx="311.025" cy="375.482" r="5.333"/>
</g>
<path style="fill:#222148;" d="M215.025,131.215c0,0,3.2,30.933,5.333,37.333c2.133,5.333,5.333,8.533,6.4,9.6v1.067v16
	c0,1.067-1.067,2.133-2.133,1.067c-5.333-3.2-17.067-12.8-18.133-21.333c-2.133-11.733,0-32,0-32S211.825,135.482,215.025,131.215z"
	/>
<g>
</g>
<g>
</g>
<g>
</g>
<g>
</g>
<g>
</g>
<g>
</g>
<g>
</g>
<g>
</g>
<g>
</g>
<g>
</g>
<g>
</g>
<g>
</g>
<g>
</g>
<g>
</g>
<g>
</g>
</svg>
