<?xml version="1.0" encoding="iso-8859-1"?>
<!-- Generator: Adobe Illustrator 19.0.0, SVG Export Plug-In . SVG Version: 6.00 Build 0)  -->
<svg version="1.1" id="Capa_1" xmlns="http://www.w3.org/2000/svg" xmlns:xlink="http://www.w3.org/1999/xlink" x="0px" y="0px"
	 viewBox="0 0 510.992 510.992" style="enable-background:new 0 0 510.992 510.992;" xml:space="preserve">
<path style="fill:#F5B54C;" d="M123.004,419.259l21.333-6.4l30.933,6.4l-5.333,26.667l-29.867,16
	C140.071,462.992,114.471,428.859,123.004,419.259z"/>
<path style="fill:#FFD15C;" d="M356.604,153.659c5.333,7.467-9.6,14.933-9.6,14.933l-66.133,67.2c0,0-32-1.067-32-4.267
	c0-2.133,6.4-10.667,11.733-19.2l0,0c5.333-7.467,10.667-14.933,10.667-14.933s-5.333-35.2-6.4-37.333l0,0
	c0,0-19.2-11.733-20.267-36.267c-2.133-24.533-2.133-28.8-2.133-28.8s-2.133-17.067-2.133-24.533s7.467-24.533,7.467-24.533
	l17.067-9.6h51.2l28.8,5.333l14.933,56.533C358.737,97.126,350.204,144.059,356.604,153.659z"/>
<path style="fill:#F5B54C;" d="M259.537,212.326c5.333-7.467,10.667-14.933,10.667-14.933s-5.333-35.2-6.4-37.333
	c0,0,10.667,10.667,16,12.8c6.4,2.133,25.6,0,33.067-2.133c7.467-2.133,25.6-13.867,26.667-14.933
	C347.004,218.726,285.137,285.926,259.537,212.326z"/>
<g>
	<path style="fill:#CED6E0;" d="M289.404,199.526l-10.667,5.333c0,0-5.333,17.067-4.267,23.467c0,0,26.667-17.067,35.2-18.133
		s8.533-7.467,8.533-7.467L289.404,199.526z"/>
	<path style="fill:#CED6E0;" d="M251.004,510.992l12.8-98.133l83.2-215.467l-56.533,18.133l-17.067,11.733l-26.667-27.733
		c0,0-12.8,26.667-14.933,29.867c-1.067,4.267-24.533,90.667-24.533,90.667s-21.333,164.267-14.933,189.867h58.667V510.992z"/>
</g>
<path style="fill:#131231;" d="M363.004,82.192l-11.733,13.867l-4.267-2.133c0,0,0-23.467-5.333-27.733
	c-5.333-5.333-5.333-8.533-5.333-18.133s-17.067-8.533-32-5.333c-13.867,3.2-42.667,0-50.133,8.533
	c-1.067,1.067-1.067,2.133-1.067,4.267c0,6.4-3.2,10.667-8.533,16c-5.333,5.333-1.067,24.533-1.067,25.6
	c-6.4-16-6.4-40.533-5.333-46.933c3.2-10.667,18.133-36.267,35.2-45.867s53.333-2.133,72.533,11.733
	C365.137,29.926,363.004,82.192,363.004,82.192z"/>
<path style="fill:#F3F3F3;" d="M354.471,136.592c0,0-6.4,14.933-20.267,25.6c-12.8,10.667-55.467,42.667-55.467,42.667
	s12.8-4.267,18.133-3.2c5.333,2.133,17.067,27.733,17.067,27.733s43.733-51.2,49.067-59.733c5.333-8.533,4.267-9.6,4.267-9.6
	S353.404,140.859,354.471,136.592z"/>
<path style="fill:#222148;" d="M201.937,510.992l12.8-130.133c0,0,6.4-118.4,24.533-150.4c12.8-23.467,16-35.2,17.067-39.467
	c-3.2,2.133-29.867,14.933-33.067,18.133c-3.2,3.2-13.867,6.4-19.2,21.333c-5.333,14.933-5.333,57.6-7.467,69.333
	c-1.067,10.667-4.267,161.067-4.267,161.067l-5.333,50.133H201.937z"/>
<path style="fill:#131231;" d="M255.271,197.392l-23.467,18.133l8.533,2.133l-13.867,8.533c0,0-18.133,49.067-22.4,62.933
	c-4.267,13.867-8.533,68.267-8.533,78.933c0,10.667,4.267,82.133,4.267,82.133s11.733-52.267,14.933-89.6s7.467-54.4,19.2-82.133
	c11.733-27.733,25.6-65.067,25.6-65.067L255.271,197.392z"/>
<path style="fill:#F3F3F3;" d="M265.937,165.392c0,0-14.933,17.067-18.133,34.133c0,0-11.733,18.133-10.667,24.533
	c0,6.4,3.2,12.8,3.2,12.8s11.733-22.4,10.667-23.467s23.467,14.933,23.467,14.933s-10.667-14.933-3.2-29.867L265.937,165.392z"/>
<g>
	<path style="fill:#222148;" d="M431.271,510.992c0-14.933,1.067-30.933,1.067-30.933L271.271,372.326c0,0-1.067,2.133-19.2,43.733
		c-11.733,25.6-14.933,68.267-14.933,94.933H431.271z"/>
	<path style="fill:#222148;" d="M382.204,179.259c0,0,70.4,29.867,87.467,48l-37.333,178.133l-59.733,57.6l-123.733-43.733
		l87.467-177.067l16-40.533L382.204,179.259z"/>
</g>
<path style="fill:#131231;" d="M358.737,148.326c0,0,2.133,11.733-4.267,23.467c-6.4,11.733-57.6,97.067-69.333,126.933
	c-11.733,29.867-40.533,122.667-41.6,151.467c0,0,44.8-114.133,62.933-139.733c18.133-26.667,55.467-80,55.467-80l-12.8-12.8
	l18.133-9.6c0,0,14.933-21.333,13.867-28.8c0,0-3.2-5.333-6.4-9.6C371.537,165.392,365.137,150.459,358.737,148.326z"/>
<path style="fill:#F26F5A;" d="M289.404,370.192c1.067,2.133,0,4.267-2.133,5.333l-70.4,22.4c-8.533,3.2-18.133,4.267-27.733,5.333
	h-1.067l0,0l0,0c8.533-5.333,18.133-9.6,28.8-12.8l68.267-19.2C287.271,368.059,289.404,368.059,289.404,370.192L289.404,370.192z"
	/>
<path style="fill:#FFD15C;" d="M209.404,391.526c0,0,9.6-2.133,10.667-3.2l13.867,3.2l2.133,1.067l-18.133-1.067
	c0,0-4.267,0-7.467,1.067c-3.2,2.133-7.467,3.2-7.467,3.2s-3.2,2.133-2.133,8.533c1.067,6.4,4.267,7.467,4.267,7.467
	s4.267-3.2,5.333-5.333c0,0,18.133,0,19.2,0c1.067,0,7.467,1.067,7.467,1.067v1.067h-19.2c0,0-7.467-1.067-8.533,3.2
	c-1.067,4.267,2.133,8.533,4.267,9.6c2.133,0,12.8,2.133,12.8,2.133l11.733,1.067l-2.133,1.067c0,0-11.733-1.067-14.933,0
	c0,0-7.467-5.333-9.6-5.333s-4.267,7.467-3.2,10.667c1.067,3.2,8.533,7.467,9.6,8.533c2.133,0,20.267,1.067,23.467,3.2
	c3.2,2.133,21.333,9.6,24.533,9.6c3.2,0,20.267,1.067,20.267,1.067l16-6.4l3.2-42.667c0,0-24.533-8.533-27.733-12.8
	c-3.2-4.267-10.667-7.467-16-10.667c-5.333-3.2-14.933-4.267-21.333-6.4c-7.467-2.133-14.933-3.2-14.933-3.2s-4.267-1.067-9.6,0
	c-6.4,1.067-11.733,6.4-14.933,9.6C197.671,388.326,201.937,400.059,209.404,391.526z"/>
<path style="fill:#F3F3F3;" d="M280.871,395.792c2.133,1.067-2.133,52.267-10.667,62.933c0,0,8.533,9.6,25.6,14.933
	c17.067,5.333,27.733,2.133,27.733-1.067s-5.333-44.8-5.333-46.933s-17.067-24.533-17.067-24.533L280.871,395.792z"/>
<g>
	<path style="fill:#131231;" d="M396.071,349.926c-2.133-25.6,0-50.133,6.4-74.667c4.267-14.933,9.6-30.933,18.133-39.467
		c21.333-21.333,42.667-10.667,48-9.6c5.333,2.133,19.2,46.933,20.267,62.933c1.067,16,2.133,112,3.2,121.6s2.133,41.6-9.6,57.6
		c-11.733,17.067-14.933,20.267-35.2,20.267s-70.4,0-70.4,0s-73.6,4.267-87.467,7.467h-6.4c0,0,11.733-58.667,10.667-76.8
		c-1.067-18.133-2.133-21.333-6.4-21.333c0,0,49.067,2.133,58.667,7.467c9.6,6.4,9.6,8.533,16,6.4c6.4-2.133,19.2,0,21.333,2.133
		c2.133,2.133,19.2-2.133,19.2-2.133s0-14.933-4.267-25.6C399.271,379.792,397.137,363.792,396.071,349.926z"/>
	<path style="fill:#131231;" d="M284.071,497.126h-1.067H284.071c-1.067-2.133,10.667-60.8,9.6-77.867
		c-1.067-18.133-2.133-20.267-5.333-20.267v-2.133c2.133,0,49.067,2.133,59.733,7.467c3.2,2.133,5.333,3.2,6.4,4.267
		c3.2,2.133,4.267,3.2,8.533,1.067c7.467-2.133,20.267,0,22.4,2.133c1.067,1.067,9.6,0,18.133-2.133c0-3.2,0-14.933-3.2-24.533
		c-1.067-4.267-3.2-17.067-4.267-35.2l0,0c-2.133-25.6,0-51.2,6.4-74.667c5.333-19.2,10.667-32,18.133-39.467
		c20.267-20.267,40.533-11.733,48-9.6h1.067c5.333,2.133,20.267,48,21.333,62.933c0,6.4,1.067,26.667,1.067,48
		c1.067,32,1.067,67.2,2.133,72.533c1.067,9.6,1.067,41.6-9.6,58.667c-11.733,17.067-14.933,20.267-35.2,20.267h-70.4
		c-1.067,0-73.6,4.267-87.467,7.467L284.071,497.126z M285.137,494.992h5.333c13.867-2.133,86.4-7.467,87.467-7.467h70.4
		c20.267,0,23.467-3.2,34.133-20.267c10.667-16,10.667-48,9.6-57.6c-1.067-5.333-1.067-41.6-2.133-72.533
		c0-21.333-1.067-41.6-1.067-48c-1.067-17.067-16-60.8-20.267-61.867h-1.067c-6.4-2.133-26.667-9.6-45.867,9.6
		c-7.467,7.467-12.8,20.267-18.133,38.4c-6.4,23.467-8.533,49.067-6.4,74.667l0,0c1.067,18.133,3.2,30.933,4.267,35.2
		c4.267,11.733,4.267,25.6,4.267,26.667v1.067h-1.067c-4.267,1.067-18.133,3.2-20.267,2.133s-14.933-4.267-21.333-2.133
		c-5.333,2.133-6.4,1.067-10.667-2.133c-1.067-1.067-3.2-2.133-6.4-4.267c-8.533-4.267-43.733-6.4-55.467-7.467
		c2.133,2.133,2.133,8.533,3.2,20.267C295.804,436.326,286.204,487.526,285.137,494.992z"/>
</g>
<ellipse transform="matrix(0.1677 -0.9858 0.9858 0.1677 203.6035 437.4205)" style="fill:#FFD15C;" cx="360.86" cy="98.128" rx="21.333" ry="10.666"/>
<path style="fill:#F26F5A;" d="M16.337,332.859l86.4,32c0,0,142.933,78.933,166.4,104.533c0,0-85.333-26.667-101.333-25.6
	c0,0-68.267-65.067-90.667-76.8C54.737,355.259,16.337,332.859,16.337,332.859z"/>
<path style="fill:#FFD15C;" d="M115.537,413.926c0,0,4.267-4.267,7.467-5.333c3.2-2.133,9.6-3.2,11.733-3.2
	c2.133,0,11.733,2.133,13.867,3.2s3.2,8.533-1.067,9.6c-4.267,1.067-6.4,0-10.667,1.067s-8.533,3.2-8.533,3.2s6.4,0,9.6,0
	c3.2,0,10.667-1.067,16-1.067c4.267-1.067,11.733-1.067,16,1.067c4.267,3.2,2.133,8.533,0,8.533s-8.533,0-11.733,1.067
	c-4.267,1.067-11.733,3.2-14.933,4.267c-3.2,1.067-10.667,3.2-10.667,3.2s5.333,1.067,9.6,0s12.8-3.2,17.067-4.267
	c5.333-1.067,12.8-4.267,16-4.267c2.133,0,5.333,0,6.4,2.133c2.133,2.133,1.067,8.533-4.267,8.533c0,0,2.133,1.067,0,2.133
	c-2.133,1.067-8.533,6.4-10.667,8.533l-2.133,2.133c0,0,1.067,1.067-1.067,3.2c-1.067,2.133-11.733,10.667-19.2,10.667
	c-8.533,0-11.733-1.067-14.933-5.333c-3.2-5.333-4.267-5.333-6.4-7.467c-2.133-2.133-3.2-3.2-3.2-5.333c0-3.2-3.2-6.4-4.267-8.533
	c-1.067-2.133-3.2-4.267-1.067-8.533s1.067-7.467,0-10.667C114.471,419.259,114.471,417.126,115.537,413.926z"/>
<path style="fill:#F5B54C;" d="M178.471,440.592c0,0-2.133,1.067-6.4,3.2c-2.133,1.067-4.267,2.133-6.4,3.2
	c-1.067,1.067-2.133,1.067-3.2,2.133c-1.067,1.067-2.133,1.067-3.2,2.133c-1.067,1.067-2.133,1.067-3.2,2.133
	c-1.067,1.067-3.2,1.067-4.267,1.067c-2.133,0-5.333,1.067-7.467,1.067s-4.267,0-5.333,1.067c-1.067,0-2.133,0-2.133,0
	s1.067,0,2.133-1.067s3.2-1.067,4.267-2.133c2.133-1.067,4.267-1.067,6.4-2.133c1.067,0,2.133-1.067,3.2-1.067
	c1.067-1.067,2.133-1.067,3.2-2.133c1.067-1.067,2.133-1.067,3.2-2.133c1.067-1.067,2.133-1.067,3.2-2.133
	c1.067-1.067,2.133-1.067,3.2-1.067c1.067,0,2.133-1.067,3.2-1.067C176.337,440.592,178.471,440.592,178.471,440.592z"/>
<g>
</g>
<g>
</g>
<g>
</g>
<g>
</g>
<g>
</g>
<g>
</g>
<g>
</g>
<g>
</g>
<g>
</g>
<g>
</g>
<g>
</g>
<g>
</g>
<g>
</g>
<g>
</g>
<g>
</g>
</svg>
